# xmcd
#
# Track frame offsets:
#	150
#	10480
#	25920
#	45115
#	60217
#	74077
#	94470
#	108325
#	125097
#	135420
#	150872
#	170075
#	185145
#	199005
#	219392
#	233250
#
# Disc length: 3334 seconds
#
# Revision: 1
# Processed by: cddbd v1.5.1PL2 Copyright (c) Steve Scherf et al.
# Submitted via: audiograbber 1.83.01
#
DISCID=d40d0410
DTITLE=Sound Choice - SC3234
DYEAR=1900
DGENRE=Karaoke Country
TTITLE0=George Strait - Don'T Make Me Come Over There
TTITLE1=Garth Brooks - Wild Horses (Radio Version)
TTITLE2=Sawyer Brown - Lookin' For Love
TTITLE3=Neal Coty - Legacy
TTITLE4=Trick Pony - Pour Me
TTITLE5=Steve Holy - The Hunger
TTITLE6=Georgia Middleman - Kick Down The Door
TTITLE7=Alabama - When It All Goes South
TTITLE8=George Strait - Don'T Make Me Come Over There
TTITLE9=Garth Brooks - Wild Horses (Radio Version)
TTITLE10=Sawyer Brown - Lookin' For Love
TTITLE11=Neal Coty - Legacy
TTITLE12=Trick Pony - Pour Me
TTITLE13=Steve Holy - The Hunger
TTITLE14=Georgia Middleman - Kick Down The Door
TTITLE15=Alabama - When It All Goes South
EXTD=Tracks 9-16 Demos
EXTT0=
EXTT1=
EXTT2=
EXTT3=
EXTT4=
EXTT5=
EXTT6=
EXTT7=
EXTT8=
EXTT9=
EXTT10=
EXTT11=
EXTT12=
EXTT13=
EXTT14=
EXTT15=
PLAYORDER=
